<svg xmlns="http://www.w3.org/2000/svg" xmlns:xlink="http://www.w3.org/1999/xlink" viewBox="0 0 100 100" width="100px" height="100px"><defs><rect id="6IX5BaaY9gIppyI9MHKoPa" width="76" height="80.343" x="-105" y="-294.343"/></defs><clipPath id="6IX5BaaY9gIppyI9MHKoPb"><use overflow="visible" xlink:href="#6IX5BaaY9gIppyI9MHKoPa"/></clipPath><g clip-path="url(#6IX5BaaY9gIppyI9MHKoPb)"><defs><rect id="6IX5BaaY9gIppyI9MHKoPc" width="720.914" height="1533.029" x="-128.886" y="-476.743"/></defs></g><path fill="#4b4dff" d="M18,25v52l12-9h48V25C78,25,17.875,25,18,25z"/><path fill="#4343bf" d="M15,83V22h66v49H31L15,83z M21,28v43l8-6h46V28H21z"/><polygon fill="#3abcf8" points="85,75 55,75 55,65 75,65 75,28 85,28"/><g><polygon fill="#edf7f5" points="67,58 55,58 55,54 63,54 63,46 67,46"/></g><g><polygon fill="#edf7f5" points="32,47 28,47 28,35 40,35 40,39 32,39"/></g></svg>